# xmcd
#
# Track frame offsets:
#	150
#	10254
#	26848
#	41288
#	60900
#	76954
#	89967
#	105242
#	128554
#	152902
#	175675
#
# Disc length: 2601 seconds
#
# Revision: 1
# Processed by: cddbd v1.4PL0 Copyright (c) Steve Scherf et al.
# Submitted via: audiograbber 1.81.02
#
DISCID=7a0a270b
DTITLE=Blues Power - Dance on my blues
DYEAR=1900
DGENRE=Blues
TTITLE0=Miss Nelly
TTITLE1=Dance on my blues
TTITLE2=Feel so good
TTITLE3=I loved another woman
TTITLE4=I work so hard
TTITLE5=Don't kill my love
TTITLE6=Chant'luna
TTITLE7=Don't you know
TTITLE8=Right place a wrong time
TTITLE9=Going down
TTITLE10=Devil man
EXTD=
EXTT0=
EXTT1=
EXTT2=
EXTT3=
EXTT4=
EXTT5=
EXTT6=
EXTT7=
EXTT8=
EXTT9=
EXTT10=
PLAYORDER=
